<?xml version="1.0" encoding="utf-8"?>
<!-- Generator: Adobe Illustrator 19.0.0, SVG Export Plug-In . SVG Version: 6.00 Build 0)  -->
<svg version="1.1" id="Layer_1" xmlns="http://www.w3.org/2000/svg" xmlns:xlink="http://www.w3.org/1999/xlink" x="0px" y="0px"
	 viewBox="0 0 612 163" style="enable-background:new 0 0 612 163;" xml:space="preserve">
<style type="text/css">
	.st0{fill:#3F393B;}
	.st1{fill:url(#XMLID_4_);}
</style>
<g id="XMLID_2_">
	<path id="XMLID_25_" class="st0" d="M272.9,126.5c-0.8,0-1.3-0.4-1.3-1.3V38.6c0-0.9,0.4-1.4,1.3-1.4h8.9c0.8,0,1.3,0.5,1.3,1.4
		v76.3h62.2c0.8,0,1.3,0.4,1.3,1.3v9c0,0.8-0.4,1.3-1.3,1.3H272.9z"/>
	<path id="XMLID_27_" class="st0" d="M450.7,126.5h-0.8c0-0.1,0-0.2-0.1-0.4l0.1,0.1l-10.6-20.7h-59.4l-10.4,20.7v-0.1
		c0,0.2,0,0.3,0,0.4h-0.7h-9.9c-0.8,0-1.3-0.4-1.3-1.3v-0.1c0-0.2,0.1-0.4,0.3-0.6v0.3l44.3-87.4c0.2-0.2,0.5-0.3,0.8-0.3h13.7
		c0.3,0,0.4,0,0.5,0.1c0,0,0.1,0.1,0.2,0.2l44.6,87.4v-0.3c0.1,0.2,0.1,0.4,0.1,0.6v0.1c0,0.8-0.4,1.3-1.1,1.3H450.7z M385.8,94.3
		h47.6l-23.6-46.9L385.8,94.3z"/>
	<path id="XMLID_30_" class="st0" d="M567.3,125.7c-0.2,0.6-0.6,0.8-1.1,0.8h-13.3c-0.4,0-0.9-0.6-1.6-1.8l-27.8-72.4l-27.2,72.5
		c-0.7,1.1-1.2,1.7-1.7,1.7h-14c-0.8,0-1.2-0.3-1.3-0.8L437.1,39v-0.4c0-0.9,0.5-1.4,1.4-1.4h10.3c0.5,0,1,0.7,1.7,2.1l36.9,75.5
		l29.1-75.6c0.7-1.3,1.2-2,1.7-2h10.4c0.5,0,1,0.7,1.7,2l29.2,75.6l37.2-75.5c0.7-1.4,1.2-2.1,1.7-2.1h10.4c0.8,0,1.1,0.5,1.1,1.4
		V39L567.3,125.7z"/>
</g>
<linearGradient id="XMLID_4_" gradientUnits="userSpaceOnUse" x1="41.723" y1="-7.4158" x2="226.4221" y2="172.0805">
	<stop  offset="0" style="stop-color:#F15758"/>
	<stop  offset="1" style="stop-color:#DC2028"/>
</linearGradient>
<path id="XMLID_1_" class="st1" d="M134.2,28l-48.2,93.6L38.3,28H134.2z M149.9,96.7h57.6L178.9,40L149.9,96.7z M227.6,135.6
	l-13-25.4h-71.9l-12.8,25.4H227.6z M149.5,28L94.7,135.6H115L169.6,28H149.5z M2.3,28l54.6,107.6h20.3L22.4,28H2.3z M190.1,28
	l54.6,107.6h20.3L210.2,28H190.1z"/>
</svg>
